<svg xmlns="http://www.w3.org/2000/svg" width="29" height="19" viewBox="0 0 29 19">
    <g fill="none" transform="translate(.65)">
        <rect width="28.35" height="18.9" fill="#FFF" rx="5.04"/>
        <path fill="#727682" d="M17.409 13.239c-.41.614-.835 1.225-1.506 1.238-.66.012-.87-.4-1.623-.4-.754 0-.99.387-1.612.412-.647.025-1.14-.663-1.553-1.275-.845-1.25-1.49-3.537-.623-5.08.43-.765 1.2-1.25 2.034-1.263.635-.012 1.236.439 1.624.439.389 0 1.117-.541 1.883-.462.32.014 1.22.133 1.798.999-.045.03-1.074.643-1.061 1.92.013 1.524 1.305 2.03 1.32 2.038-.012.035-.207.723-.681 1.434zm-2.815-8.066c.355-.425.955-.742 1.45-.763.062.591-.17 1.183-.513 1.61-.344.426-.907.757-1.459.713-.075-.578.204-1.182.522-1.56z"/>
    </g>
</svg>
