<svg xmlns="http://www.w3.org/2000/svg" width="91" height="110" viewBox="0 0 91 110">
    <path fill="#49B2FF" fill-rule="evenodd" d="M5.038 100c2.783 0 5.039 2.239 5.039 5s-2.256 5-5.039 5C2.256 110 0 107.761 0 105s2.256-5 5.038-5zm20.154 0c2.783 0 5.039 2.239 5.039 5s-2.256 5-5.039 5c-2.782 0-5.038-2.239-5.038-5s2.256-5 5.038-5zm20.154 0c2.783 0 5.039 2.239 5.039 5s-2.256 5-5.039 5-5.038-2.239-5.038-5 2.255-5 5.038-5zm20.154 0c2.783 0 5.038 2.239 5.038 5s-2.255 5-5.038 5c-2.783 0-5.038-2.239-5.038-5s2.255-5 5.038-5zm20.154 0c2.783 0 5.038 2.239 5.038 5s-2.255 5-5.038 5c-2.783 0-5.039-2.239-5.039-5s2.256-5 5.039-5zM5.038 76c2.783 0 5.039 2.239 5.039 5s-2.256 5-5.039 5C2.256 86 0 83.761 0 81s2.256-5 5.038-5zm20.154 0c2.783 0 5.039 2.239 5.039 5s-2.256 5-5.039 5c-2.782 0-5.038-2.239-5.038-5s2.256-5 5.038-5zm20.154 0c2.783 0 5.039 2.239 5.039 5s-2.256 5-5.039 5-5.038-2.239-5.038-5 2.255-5 5.038-5zM65.5 76c2.783 0 5.038 2.239 5.038 5s-2.255 5-5.038 5c-2.783 0-5.038-2.239-5.038-5s2.255-5 5.038-5zm20.154 0c2.783 0 5.038 2.239 5.038 5s-2.255 5-5.038 5c-2.783 0-5.039-2.239-5.039-5s2.256-5 5.039-5zM5.038 50c2.783 0 5.039 2.239 5.039 5s-2.256 5-5.039 5C2.256 60 0 57.761 0 55s2.256-5 5.038-5zm20.154 0c2.783 0 5.039 2.239 5.039 5s-2.256 5-5.039 5c-2.782 0-5.038-2.239-5.038-5s2.256-5 5.038-5zm20.154 0c2.783 0 5.039 2.239 5.039 5s-2.256 5-5.039 5-5.038-2.239-5.038-5 2.255-5 5.038-5zM65.5 50c2.783 0 5.038 2.239 5.038 5s-2.255 5-5.038 5c-2.783 0-5.038-2.239-5.038-5s2.255-5 5.038-5zm20.154 0c2.783 0 5.038 2.239 5.038 5s-2.255 5-5.038 5c-2.783 0-5.039-2.239-5.039-5s2.256-5 5.039-5zM5.038 25c2.783 0 5.039 2.239 5.039 5s-2.256 5-5.039 5C2.256 35 0 32.761 0 30s2.256-5 5.038-5zm20.154 0c2.783 0 5.039 2.239 5.039 5s-2.256 5-5.039 5c-2.782 0-5.038-2.239-5.038-5s2.256-5 5.038-5zm20.154 0c2.783 0 5.039 2.239 5.039 5s-2.256 5-5.039 5-5.038-2.239-5.038-5 2.255-5 5.038-5zM65.5 25c2.783 0 5.038 2.239 5.038 5s-2.255 5-5.038 5c-2.783 0-5.038-2.239-5.038-5s2.255-5 5.038-5zm20.154 0c2.783 0 5.038 2.239 5.038 5s-2.255 5-5.038 5c-2.783 0-5.039-2.239-5.039-5s2.256-5 5.039-5zM5.038 0c2.783 0 5.039 2.239 5.039 5s-2.256 5-5.039 5C2.256 10 0 7.761 0 5s2.256-5 5.038-5zm20.154 0c2.783 0 5.039 2.239 5.039 5s-2.256 5-5.039 5c-2.782 0-5.038-2.239-5.038-5s2.256-5 5.038-5zm20.154 0c2.783 0 5.039 2.239 5.039 5s-2.256 5-5.039 5-5.038-2.239-5.038-5 2.255-5 5.038-5zM65.5 0c2.783 0 5.038 2.239 5.038 5s-2.255 5-5.038 5c-2.783 0-5.038-2.239-5.038-5s2.255-5 5.038-5zm20.154 0c2.783 0 5.038 2.239 5.038 5s-2.255 5-5.038 5c-2.783 0-5.039-2.239-5.039-5s2.256-5 5.039-5z" opacity=".2"/>
</svg>
