<svg xmlns="http://www.w3.org/2000/svg" width="59" height="120" viewBox="0 0 59 120">
    <path fill="#F90" fill-rule="evenodd" d="M81.73 113.803c1.806 0 3.27 1.387 3.27 3.098 0 1.712-1.464 3.099-3.27 3.099-1.805 0-3.268-1.387-3.268-3.099 0-1.71 1.463-3.098 3.269-3.098zm-13.076 0c1.805 0 3.27 1.387 3.27 3.098 0 1.712-1.465 3.099-3.27 3.099-1.806 0-3.27-1.387-3.27-3.099 0-1.71 1.464-3.098 3.27-3.098zm-13.077 0c1.805 0 3.27 1.387 3.27 3.098 0 1.712-1.465 3.099-3.27 3.099-1.806 0-3.27-1.387-3.27-3.099 0-1.71 1.464-3.098 3.27-3.098zm-13.077 0c1.806 0 3.27 1.387 3.27 3.098 0 1.712-1.464 3.099-3.27 3.099s-3.27-1.387-3.27-3.099c0-1.71 1.464-3.098 3.27-3.098zm-13.077 0c1.806 0 3.27 1.387 3.27 3.098 0 1.712-1.464 3.099-3.27 3.099-1.805 0-3.27-1.387-3.27-3.099 0-1.71 1.465-3.098 3.27-3.098zm-13.077 0c1.806 0 3.27 1.387 3.27 3.098 0 1.712-1.464 3.099-3.27 3.099-1.805 0-3.27-1.387-3.27-3.099 0-1.71 1.465-3.098 3.27-3.098zm-13.077 0c1.806 0 3.27 1.387 3.27 3.098 0 1.712-1.464 3.099-3.27 3.099C1.464 120 0 118.613 0 116.901c0-1.71 1.464-3.098 3.27-3.098zm78.462-16.338c1.805 0 3.269 1.387 3.269 3.098 0 1.712-1.464 3.099-3.27 3.099-1.805 0-3.268-1.387-3.268-3.099 0-1.71 1.463-3.098 3.269-3.098zm-13.077 0c1.805 0 3.27 1.387 3.27 3.098 0 1.712-1.465 3.099-3.27 3.099-1.806 0-3.27-1.387-3.27-3.099 0-1.71 1.464-3.098 3.27-3.098zm-13.077 0c1.805 0 3.27 1.387 3.27 3.098 0 1.712-1.465 3.099-3.27 3.099-1.806 0-3.27-1.387-3.27-3.099 0-1.71 1.464-3.098 3.27-3.098zm-13.077 0c1.806 0 3.27 1.387 3.27 3.098 0 1.712-1.464 3.099-3.27 3.099s-3.27-1.387-3.27-3.099c0-1.71 1.464-3.098 3.27-3.098zm-13.077 0c1.806 0 3.27 1.387 3.27 3.098 0 1.712-1.464 3.099-3.27 3.099-1.805 0-3.27-1.387-3.27-3.099 0-1.71 1.465-3.098 3.27-3.098zm-13.077 0c1.806 0 3.27 1.387 3.27 3.098 0 1.712-1.464 3.099-3.27 3.099-1.805 0-3.27-1.387-3.27-3.099 0-1.71 1.465-3.098 3.27-3.098zm-13.077 0c1.806 0 3.27 1.387 3.27 3.098 0 1.712-1.464 3.099-3.27 3.099-1.805 0-3.269-1.387-3.269-3.099 0-1.71 1.464-3.098 3.27-3.098zm65.385-16.338c1.805 0 3.27 1.387 3.27 3.098 0 1.712-1.465 3.099-3.27 3.099-1.806 0-3.27-1.387-3.27-3.099 0-1.711 1.464-3.098 3.27-3.098zm-13.077 0c1.805 0 3.27 1.387 3.27 3.098 0 1.712-1.465 3.099-3.27 3.099-1.806 0-3.27-1.387-3.27-3.099 0-1.711 1.464-3.098 3.27-3.098zm-13.077 0c1.806 0 3.27 1.387 3.27 3.098 0 1.712-1.464 3.099-3.27 3.099s-3.27-1.387-3.27-3.099c0-1.711 1.464-3.098 3.27-3.098zm-13.077 0c1.806 0 3.27 1.387 3.27 3.098 0 1.712-1.464 3.099-3.27 3.099-1.805 0-3.27-1.387-3.27-3.099 0-1.711 1.465-3.098 3.27-3.098zm-13.077 0c1.806 0 3.27 1.387 3.27 3.098 0 1.712-1.464 3.099-3.27 3.099-1.805 0-3.27-1.387-3.27-3.099 0-1.711 1.465-3.098 3.27-3.098zm-13.077 0c1.806 0 3.27 1.387 3.27 3.098 0 1.712-1.464 3.099-3.27 3.099C1.464 87.324 0 85.937 0 84.225c0-1.711 1.464-3.098 3.27-3.098zm78.462 0c1.805 0 3.269 1.387 3.269 3.098 0 1.712-1.464 3.099-3.27 3.099-1.805 0-3.268-1.387-3.268-3.099 0-1.711 1.463-3.098 3.269-3.098zM68.654 64.789c1.805 0 3.27 1.387 3.27 3.098 0 1.712-1.465 3.099-3.27 3.099-1.806 0-3.27-1.387-3.27-3.099 0-1.711 1.464-3.098 3.27-3.098zm-13.077 0c1.805 0 3.27 1.387 3.27 3.098 0 1.712-1.465 3.099-3.27 3.099-1.806 0-3.27-1.387-3.27-3.099 0-1.711 1.464-3.098 3.27-3.098zm-13.077 0c1.806 0 3.27 1.387 3.27 3.098 0 1.712-1.464 3.099-3.27 3.099s-3.27-1.387-3.27-3.099c0-1.711 1.464-3.098 3.27-3.098zm-13.077 0c1.806 0 3.27 1.387 3.27 3.098 0 1.712-1.464 3.099-3.27 3.099-1.805 0-3.27-1.387-3.27-3.099 0-1.711 1.465-3.098 3.27-3.098zm-13.077 0c1.806 0 3.27 1.387 3.27 3.098 0 1.712-1.464 3.099-3.27 3.099-1.805 0-3.27-1.387-3.27-3.099 0-1.711 1.465-3.098 3.27-3.098zm-13.077 0c1.806 0 3.27 1.387 3.27 3.098 0 1.712-1.464 3.099-3.27 3.099C1.464 70.986 0 69.599 0 67.887c0-1.711 1.464-3.098 3.27-3.098zm78.462 0c1.805 0 3.269 1.387 3.269 3.098 0 1.712-1.464 3.099-3.27 3.099-1.805 0-3.268-1.387-3.268-3.099 0-1.711 1.463-3.098 3.269-3.098zm0-15.775c1.805 0 3.269 1.387 3.269 3.099 0 1.711-1.464 3.098-3.27 3.098-1.805 0-3.268-1.387-3.268-3.098 0-1.712 1.463-3.099 3.269-3.099zm-13.077 0c1.805 0 3.27 1.387 3.27 3.099 0 1.711-1.465 3.098-3.27 3.098-1.806 0-3.27-1.387-3.27-3.098 0-1.712 1.464-3.099 3.27-3.099zm-13.077 0c1.805 0 3.27 1.387 3.27 3.099 0 1.711-1.465 3.098-3.27 3.098-1.806 0-3.27-1.387-3.27-3.098 0-1.712 1.464-3.099 3.27-3.099zm-13.077 0c1.806 0 3.27 1.387 3.27 3.099 0 1.711-1.464 3.098-3.27 3.098s-3.27-1.387-3.27-3.098c0-1.712 1.464-3.099 3.27-3.099zm-13.077 0c1.806 0 3.27 1.387 3.27 3.099 0 1.711-1.464 3.098-3.27 3.098-1.805 0-3.27-1.387-3.27-3.098 0-1.712 1.465-3.099 3.27-3.099zm-13.077 0c1.806 0 3.27 1.387 3.27 3.099 0 1.711-1.464 3.098-3.27 3.098-1.805 0-3.27-1.387-3.27-3.098 0-1.712 1.465-3.099 3.27-3.099zm-13.077 0c1.806 0 3.27 1.387 3.27 3.099 0 1.711-1.464 3.098-3.27 3.098C1.464 55.211 0 53.824 0 52.113c0-1.712 1.464-3.099 3.27-3.099zM42.5 32.676c1.806 0 3.27 1.387 3.27 3.099 0 1.711-1.464 3.098-3.27 3.098s-3.27-1.387-3.27-3.098c0-1.712 1.464-3.099 3.27-3.099zm-26.154 0c1.806 0 3.27 1.387 3.27 3.099 0 1.711-1.464 3.098-3.27 3.098-1.805 0-3.27-1.387-3.27-3.098 0-1.712 1.465-3.099 3.27-3.099zm13.077 0c1.806 0 3.27 1.387 3.27 3.099 0 1.711-1.464 3.098-3.27 3.098-1.805 0-3.27-1.387-3.27-3.098 0-1.712 1.465-3.099 3.27-3.099zm39.23 0c1.806 0 3.27 1.387 3.27 3.099 0 1.711-1.464 3.098-3.27 3.098-1.805 0-3.268-1.387-3.268-3.098 0-1.712 1.463-3.099 3.269-3.099zm13.078 0c1.805 0 3.269 1.387 3.269 3.099 0 1.711-1.464 3.098-3.27 3.098-1.805 0-3.268-1.387-3.268-3.098 0-1.712 1.463-3.099 3.269-3.099zm-78.462 0c1.806 0 3.27 1.387 3.27 3.099 0 1.711-1.464 3.098-3.27 3.098C1.464 38.873 0 37.486 0 35.775c0-1.712 1.464-3.099 3.27-3.099zm52.308 0c1.805 0 3.27 1.387 3.27 3.099 0 1.711-1.465 3.098-3.27 3.098-1.806 0-3.27-1.387-3.27-3.098 0-1.712 1.464-3.099 3.27-3.099zM81.73 16.338c1.805 0 3.269 1.387 3.269 3.099 0 1.71-1.464 3.098-3.27 3.098-1.805 0-3.268-1.387-3.268-3.098 0-1.712 1.463-3.099 3.269-3.099zm-26.154 0c1.805 0 3.27 1.387 3.27 3.099 0 1.71-1.465 3.098-3.27 3.098-1.806 0-3.27-1.387-3.27-3.098 0-1.712 1.464-3.099 3.27-3.099zm-26.154 0c1.806 0 3.27 1.387 3.27 3.099 0 1.71-1.464 3.098-3.27 3.098-1.805 0-3.27-1.387-3.27-3.098 0-1.712 1.465-3.099 3.27-3.099zm-13.077 0c1.806 0 3.27 1.387 3.27 3.099 0 1.71-1.464 3.098-3.27 3.098-1.805 0-3.27-1.387-3.27-3.098 0-1.712 1.465-3.099 3.27-3.099zm-13.077 0c1.806 0 3.27 1.387 3.27 3.099 0 1.71-1.464 3.098-3.27 3.098C1.464 22.535 0 21.148 0 19.437c0-1.712 1.464-3.099 3.27-3.099zm65.385 0c1.805 0 3.27 1.387 3.27 3.099 0 1.71-1.465 3.098-3.27 3.098-1.806 0-3.27-1.387-3.27-3.098 0-1.712 1.464-3.099 3.27-3.099zm-26.154 0c1.806 0 3.27 1.387 3.27 3.099 0 1.71-1.464 3.098-3.27 3.098s-3.27-1.387-3.27-3.098c0-1.712 1.464-3.099 3.27-3.099zM16.346 0c1.806 0 3.27 1.387 3.27 3.099 0 1.71-1.464 3.098-3.27 3.098-1.805 0-3.27-1.387-3.27-3.098 0-1.712 1.465-3.099 3.27-3.099zm13.077 0c1.806 0 3.27 1.387 3.27 3.099 0 1.71-1.464 3.098-3.27 3.098-1.805 0-3.27-1.387-3.27-3.098 0-1.712 1.465-3.099 3.27-3.099zM42.5 0c1.806 0 3.27 1.387 3.27 3.099 0 1.71-1.464 3.098-3.27 3.098S39.23 4.81 39.23 3.1C39.23 1.387 40.695 0 42.5 0zm13.077 0c1.805 0 3.27 1.387 3.27 3.099 0 1.71-1.465 3.098-3.27 3.098-1.806 0-3.27-1.387-3.27-3.098 0-1.712 1.464-3.099 3.27-3.099zm13.077 0c1.805 0 3.27 1.387 3.27 3.099 0 1.71-1.465 3.098-3.27 3.098-1.806 0-3.27-1.387-3.27-3.098 0-1.712 1.464-3.099 3.27-3.099zM81.73 0C83.536 0 85 1.387 85 3.099c0 1.71-1.464 3.098-3.27 3.098-1.805 0-3.268-1.387-3.268-3.098C78.462 1.387 79.925 0 81.73 0zM3.269 0c1.806 0 3.27 1.387 3.27 3.099 0 1.71-1.464 3.098-3.27 3.098C1.464 6.197 0 4.81 0 3.1 0 1.387 1.464 0 3.27 0z" opacity=".25"/>
</svg>
