<svg xmlns="http://www.w3.org/2000/svg" width="20" height="22" viewBox="0 0 20 22">
    <g fill="none">
        <path fill="#2196F3" d="M10.836 10.107L.784 19.88c-.471-.324-.75-.865-.746-1.44V1.775C.033 1.199.313.659.784.334l10.052 9.773z" transform="translate(.18 .361)"/>
        <path fill="#4CAF50" d="M14.354 6.693l-3.518 3.414L.784.334C.82.304.86.277.902.251c.531-.325 1.195-.335 1.736-.027l11.716 6.47z" transform="translate(.18 .361)"/>
        <path fill="#FFC107" d="M18.617 10.107c.006.65-.343 1.25-.91 1.56l-3.353 1.854-3.518-3.414 3.518-3.414 3.354 1.854c.566.31.915.91.909 1.56z" transform="translate(.18 .361)"/>
        <path fill="#F44336" d="M14.354 13.52L2.638 19.99c-.543.304-1.204.293-1.736-.027-.041-.025-.08-.053-.118-.083l10.052-9.773 3.518 3.414z" transform="translate(.18 .361)"/>
    </g>
</svg>
