<svg xmlns="http://www.w3.org/2000/svg" xmlns:xlink="http://www.w3.org/1999/xlink" width="115" height="45" viewBox="0 0 115 45">
    <defs>
        <path id="prefix__a" d="M0.032 0.143L8.305 0.143 8.305 19.352 0.032 19.352z"/>
        <path id="prefix__c" d="M10.852 16.805L10.852 0.292 0.169 0.292 0.169 16.805 10.852 16.805z"/>
        <path id="prefix__e" d="M0 27.626L0 0.178 46.118 0.178 46.118 27.626z"/>
    </defs>
    <g fill="none" fill-rule="evenodd">
        <g>
            <path fill="#00BCF1" d="M61.624 6.097c-.556-1.591-2.07-2.733-3.85-2.733h-.037c-1.157 0-2.2.482-2.942 1.255-.742-.773-1.785-1.255-2.94-1.255h-.038c-1.017 0-1.946.373-2.66.988v-.31c-.024-.314-.28-.56-.598-.56h-2.73c-.332 0-.603.27-.603.605V18.92c0 .334.27.605.603.605h2.73c.304 0 .554-.227.595-.523l-.002-10.647c0-.036.002-.071.005-.107.044-.475.392-.866.941-.914h.503c.231.02.425.1.576.223.238.19.371.48.37.798l.01 10.596c0 .334.272.604.604.604h2.73c.322 0 .584-.255.6-.575l-.002-10.638c-.001-.351.16-.668.444-.854.14-.09.308-.151.502-.168h.503c.59.052.947.499.946 1.022l.01 10.581c0 .334.271.604.604.604h2.73c.333 0 .603-.27.603-.604V7.542c0-.775-.088-1.106-.207-1.445" transform="translate(52.397)"/>
            <g transform="translate(52.397) translate(35.445 .287)">
                <mask id="prefix__b" fill="#fff">
                    <use xlink:href="#prefix__a"/>
                </mask>
                <path fill="#00BCF1" d="M7.702 3.234h-1.56V.704H6.14V.697c0-.307-.246-.555-.55-.555-.036 0-.07.006-.105.012C3.756.63 4.103 3.03.943 3.234H.636c-.046 0-.09.006-.132.015H.5h.002c-.27.061-.47.3-.47.588v2.73c0 .336.27.606.603.606h1.646l-.001 11.581c0 .33.267.598.596.598h2.7c.328 0 .595-.268.595-.598V7.174h1.53c.333 0 .603-.271.603-.606v-2.73c0-.333-.27-.604-.603-.604" mask="url(#prefix__b)"/>
            </g>
            <path fill="#203368" d="M33.327 3.521h-2.729c-.332 0-.602.271-.602.604v5.648c-.006.349-.29.63-.64.63h-1.142c-.353 0-.64-.286-.64-.64l-.011-5.638c0-.333-.27-.604-.604-.604h-2.728c-.334 0-.604.271-.604.604v6.19c0 2.352 1.675 4.026 4.026 4.026 0 0 1.764 0 1.818.011.319.037.567.304.567.633 0 .325-.244.59-.558.63l-.046.008-3.992.015c-.333 0-.603.27-.603.604v2.73c0 .334.27.605.603.605h4.463c2.351 0 4.026-1.676 4.026-4.028V4.125c0-.333-.27-.604-.604-.604M6.91 8.526V10.211c0 .354-.287.64-.64.64l-1.731.002V7.475H6.27c.353 0 .64.287.64.64v.411zm.24-5.005H1.184c-.328 0-.592.265-.592.592V6.79l.001.01v12.155c0 .33.245.597.55.605h2.781c.334 0 .605-.27.605-.604l.01-4.152h2.61c2.186 0 3.709-1.515 3.709-3.712V7.238c0-2.195-1.523-3.717-3.708-3.717zM18.234 14.937v.427c0 .035-.005.068-.01.101-.007.03-.016.06-.026.089-.085.238-.323.411-.607.411h-1.136c-.355 0-.643-.27-.643-.6v-.516l-.002-.019.002-1.371V13.026c.002-.33.289-.597.643-.597h1.136c.355 0 .643.269.643.6v1.908zm-.434-11.4h-3.787c-.335 0-.607.254-.607.566v1.062l.003.021c0 .008-.003.015-.003.015v1.463c0 .331.288.6.644.6l3.605.001c.284.044.51.251.543.577v.353c-.033.309-.255.535-.528.56h-1.785c-2.375 0-4.068 1.58-4.068 3.796V15.73c0 2.204 1.455 3.772 3.813 3.772h4.95c.888 0 1.608-.672 1.608-1.502V7.637c0-2.514-1.295-4.1-4.388-4.1z" transform="translate(52.397)"/>
        </g>
        <g>
            <path fill="#213367" d="M6.74 15.7L1.586 2.221h-.083C1.6 3.29 1.65 4.56 1.65 6.028V15.7H.017V.496h2.66l4.811 12.541h.084L12.425.496h2.64v15.203h-1.767V5.903c0-1.123.048-2.343.145-3.66h-.083L8.164 15.698H6.74zM18.254 9.99c0 1.456.29 2.565.872 3.328.583.762 1.438 1.144 2.567 1.144 1.13 0 1.987-.38 2.573-1.14.585-.758.878-1.869.878-3.332 0-1.449-.293-2.55-.878-3.302-.586-.752-1.45-1.128-2.593-1.128-1.13 0-1.982.37-2.556 1.113-.576.742-.863 1.847-.863 3.317m8.677 0c0 1.858-.468 3.309-1.403 4.352-.935 1.043-2.227 1.565-3.876 1.565-1.018 0-1.922-.239-2.712-.718-.79-.478-1.4-1.164-1.83-2.058-.429-.895-.643-1.942-.643-3.14 0-1.859.463-3.306 1.392-4.342.928-1.037 2.216-1.555 3.866-1.555 1.593 0 2.859.53 3.798 1.59.939 1.062 1.408 2.497 1.408 4.306M36.494 15.7V8.325c0-.93-.211-1.622-.634-2.08-.423-.457-1.084-.686-1.985-.686-1.192 0-2.065.323-2.618.967-.555.645-.832 1.71-.832 3.193v5.98H28.7V4.301h1.403l.28 1.56h.083c.354-.562.85-.997 1.486-1.305.638-.309 1.348-.463 2.13-.463 1.373 0 2.405.331 3.098.993.692.662 1.039 1.72 1.039 3.177v7.435h-1.725zM44.851 5.54c-.914 0-1.643.297-2.187.893-.544.597-.864 1.422-.961 2.475h5.954c0-1.088-.242-1.922-.727-2.5-.486-.58-1.178-.869-2.079-.869m.468 10.368c-1.683 0-3.012-.513-3.985-1.539-.974-1.026-1.46-2.45-1.46-4.274 0-1.837.452-3.297 1.356-4.378.904-1.082 2.118-1.622 3.642-1.622 1.427 0 2.556.47 3.388 1.409.831.94 1.247 2.179 1.247 3.717v1.092H41.66c.035 1.339.372 2.354 1.013 3.047.641.694 1.543 1.04 2.707 1.04 1.226 0 2.439-.256 3.638-.77v1.54c-.61.263-1.187.452-1.731.566-.544.115-1.2.172-1.97.172" transform="translate(53.014 23.425)"/>
            <g transform="translate(53.014 23.425) translate(50.448 4.01)">
                <mask id="prefix__d" fill="#fff">
                    <use xlink:href="#prefix__c"/>
                </mask>
                <path fill="#213367" d="M.169.292h1.85L4.513 6.79c.547 1.484.886 2.555 1.018 3.214h.083c.09-.354.28-.959.567-1.815.287-.856 1.228-3.49 2.821-7.898h1.85L5.957 13.27c-.485 1.283-1.051 2.192-1.699 2.73-.648.537-1.443.805-2.385.805-.526 0-1.046-.058-1.558-.176v-1.383c.38.083.806.124 1.278.124 1.185 0 2.03-.665 2.535-1.996l.634-1.622L.17.292z" mask="url(#prefix__d)"/>
            </g>
        </g>
        <g>
            <path fill="#00BCF1" d="M.343 25.725L22.36.504c.348-.398.91-.398 1.258 0l22.156 25.38c.561.644.162 1.744-.633 1.74L.97 27.466c-.791-.003-1.186-1.099-.627-1.74" transform="translate(0 .616)"/>
            <g transform="translate(0 .616) translate(0 9.582)">
                <mask id="prefix__f" fill="#fff">
                    <use xlink:href="#prefix__e"/>
                </mask>
                <path fill="#27306A" d="M.245 25.839L22.401.458c.324-.373.851-.373 1.176 0l22.296 25.541c.525.602.15 1.63-.591 1.627l-44.451-.16c-.74-.003-1.11-1.028-.586-1.627" mask="url(#prefix__f)"/>
            </g>
            <path fill="#FEFEFE" d="M19.734 21.548c-.24 0-.415-.066-.529-.197-.114-.132-.171-.283-.171-.451 0-.167.057-.315.171-.44.114-.126.29-.19.53-.19h6.649c.24 0 .417.068.53.2.113.131.17.28.17.449 0 .168-.057.315-.17.44-.113.126-.29.189-.53.189h-.97c-.42 0-.773-.006-1.061-.017-.287-.014-.461-.026-.521-.037v.072c.252.108.497.288.737.54.24.251.42.569.54.952h1.275c.24 0 .417.066.53.198.113.132.17.282.17.45 0 .167-.057.314-.17.44-.113.125-.29.189-.53.189h-1.186c-.06.551-.21 1.023-.449 1.412-.24.389-.531.71-.872.963-.342.251-.72.443-1.132.575-.414.132-.817.215-1.213.251l4.06 3.902c.192.192.289.408.289.649 0 .226-.072.418-.216.575-.144.155-.341.234-.593.234-.132 0-.26-.022-.386-.063-.126-.043-.255-.129-.386-.262l-4.78-4.674c-.133-.12-.229-.243-.289-.37-.06-.125-.09-.254-.09-.387 0-.227.073-.416.216-.566.145-.15.33-.224.557-.224h.234c.371 0 .74-.034 1.106-.1.365-.065.695-.18.988-.34.293-.163.541-.37.746-.621.203-.252.335-.57.395-.954h-3.649c-.24 0-.415-.065-.529-.198-.114-.132-.171-.281-.171-.45 0-.168.057-.314.171-.44.114-.126.29-.189.53-.189h3.557c-.311-1.006-1.227-1.51-2.749-1.51h-.809z" transform="translate(0 .616)"/>
        </g>
    </g>
</svg>
