<?xml version="1.0" encoding="UTF-8"?>
<svg width="29px" height="19px" viewBox="0 0 29 19" version="1.1" xmlns="http://www.w3.org/2000/svg" xmlns:xlink="http://www.w3.org/1999/xlink">
    <!-- Generator: sketchtool 64 (101010) - https://sketch.com -->
    <title>7004D240-D1B7-4AB8-A5A5-0F4A3CDFF81A</title>
    <desc>Created with sketchtool.</desc>
    <g id="Final" stroke="none" stroke-width="1" fill="none" fill-rule="evenodd">
        <g id="1.-Global--Sign-In" transform="translate(-393.000000, -604.000000)" fill-rule="nonzero">
            <g id="Group" transform="translate(238.000000, 177.000000)">
                <g id="Input" transform="translate(55.000000, 136.000000)">
                    <g id="Download-App" transform="translate(100.000000, 291.000000)">
                        <g id="Playstore">
                            <g>
                                <rect id="Rectangle" fill="#FFFFFF" x="7.1942452e-13" y="1.77635684e-13" width="28.3499988" height="18.8999992" rx="5.03999978"></rect>
                                <g id="google-play" transform="translate(9.450000, 4.410000)">
                                    <g id="Shape">
                                        <path d="M5.45469525,5.03924914 L0.394406791,9.91196382 C0.157441014,9.75001898 0.0167499567,9.48064708 0.0192053348,9.1936459 L0.0192053348,0.884852387 C0.0167499567,0.597851208 0.157441014,0.328479305 0.394406791,0.166534461 L5.45469525,5.03924914 Z" fill="#2196F3"></path>
                                        <path d="M7.22534369,3.33723049 L5.45469525,5.03924914 L0.394406791,0.166534461 C0.413473003,0.15175761 0.433332747,0.138010207 0.453878789,0.12535659 C0.721320479,-0.0367383814 1.05537595,-0.0419714024 1.32777186,0.111630633 L7.22534369,3.33723049 Z" fill="#4CAF50"></path>
                                        <path d="M9.37118257,5.03924914 C9.37448538,5.36324606 9.19842854,5.66251482 8.91365782,5.81706051 L7.22536513,6.74126779 L5.4547167,5.03924914 L7.22536513,3.33723049 L8.91365782,4.26143777 C9.19842854,4.41598347 9.37448538,4.71525222 9.37118257,5.03924914 Z" fill="#FFC107"></path>
                                        <path d="M7.22534369,6.74126779 L1.32777186,9.96686765 C1.05477544,10.1180891 0.72198533,10.1128561 0.453878789,9.95314169 C0.433332747,9.94048808 0.413473003,9.92674067 0.394406791,9.91196382 L5.4547167,5.03924914 L7.22534369,6.74126779 Z" fill="#F44336"></path>
                                    </g>
                                </g>
                            </g>
                        </g>
                    </g>
                </g>
            </g>
        </g>
    </g>
</svg>