<svg xmlns="http://www.w3.org/2000/svg" width="17" height="13" viewBox="0 0 17 13">
    <g fill="none" fill-rule="evenodd">
        <path fill="#5C5F68" fill-rule="nonzero" d="M8 4.273c1.205 0 2.182.977 2.182 2.182S9.205 8.636 8 8.636 5.818 7.66 5.818 6.455 6.795 4.273 8 4.273M8 1c3.636 0 6.742 2.262 8 5.455-1.258 3.192-4.364 5.454-8 5.454S1.258 9.647 0 6.455C1.258 3.262 4.364 1 8 1M1.585 6.455c1.2 2.443 3.68 4 6.415 4s5.215-1.557 6.415-4c-1.2-2.444-3.68-4-6.415-4s-5.215 1.556-6.415 4z"/>
        <path d="M0 0H16V13H0z"/>
    </g>
</svg>
