<svg xmlns="http://www.w3.org/2000/svg" width="1910" height="733" viewBox="0 0 1910 733">
    <defs>
        <linearGradient id="prefix__a" x1="55.204%" x2="38.311%" y1="46.112%" y2="48.973%">
            <stop offset="0%" stop-color="#FFF"/>
            <stop offset="100%" stop-color="#E9E8E8"/>
            <stop offset="100%" stop-color="#D9D8D8"/>
        </linearGradient>
        <linearGradient id="prefix__b" x1="55.204%" x2="38.311%" y1="46.091%" y2="48.967%">
            <stop offset="0%" stop-color="#FFF"/>
            <stop offset="100%" stop-color="#E9E8E8"/>
            <stop offset="100%" stop-color="#D9D8D8"/>
        </linearGradient>
        <linearGradient id="prefix__c" x1="55.204%" x2="38.311%" y1="45.957%" y2="48.932%">
            <stop offset="0%" stop-color="#FFF"/>
            <stop offset="100%" stop-color="#E9E8E8"/>
            <stop offset="100%" stop-color="#D9D8D8"/>
        </linearGradient>
        <linearGradient id="prefix__d" x1="55.204%" x2="38.311%" y1="45.972%" y2="48.936%">
            <stop offset="0%" stop-color="#FFF"/>
            <stop offset="100%" stop-color="#E9E8E8"/>
            <stop offset="100%" stop-color="#D9D8D8"/>
        </linearGradient>
        <linearGradient id="prefix__e" x1="55.204%" x2="38.311%" y1="45.965%" y2="48.934%">
            <stop offset="0%" stop-color="#FFF"/>
            <stop offset="100%" stop-color="#E9E8E8"/>
            <stop offset="100%" stop-color="#D9D8D8"/>
        </linearGradient>
        <linearGradient id="prefix__f" x1="55.204%" x2="38.311%" y1="45.918%" y2="48.922%">
            <stop offset="0%" stop-color="#FFF"/>
            <stop offset="100%" stop-color="#E9E8E8"/>
            <stop offset="100%" stop-color="#D9D8D8"/>
        </linearGradient>
        <linearGradient id="prefix__g" x1="55.204%" x2="38.311%" y1="45.904%" y2="48.918%">
            <stop offset="0%" stop-color="#FFF"/>
            <stop offset="100%" stop-color="#E9E8E8"/>
            <stop offset="100%" stop-color="#D9D8D8"/>
        </linearGradient>
        <linearGradient id="prefix__h" x1="55.204%" x2="38.311%" y1="45.868%" y2="48.909%">
            <stop offset="0%" stop-color="#FFF"/>
            <stop offset="100%" stop-color="#E9E8E8"/>
            <stop offset="100%" stop-color="#D9D8D8"/>
        </linearGradient>
        <linearGradient id="prefix__i" x1="6.203%" x2="23.178%" y1="41.033%" y2="41.92%">
            <stop offset="0%" stop-color="#FFF"/>
            <stop offset="57.436%" stop-color="#EAE9E9"/>
            <stop offset="100%" stop-color="#E9E8E8"/>
            <stop offset="100%" stop-color="#D9D8D8"/>
        </linearGradient>
        <linearGradient id="prefix__j" x1="19.02%" x2="-10.035%" y1="50.551%" y2="48.788%">
            <stop offset="0%" stop-color="#E9E8E8"/>
            <stop offset="100%" stop-color="#FFF"/>
            <stop offset="100%" stop-color="#D9D8D8"/>
        </linearGradient>
        <linearGradient id="prefix__k" x1="0%" x2="15.855%" y1="46.311%" y2="48.399%">
            <stop offset="0%" stop-color="#FFF"/>
            <stop offset="25.054%" stop-color="#FEFEFE"/>
            <stop offset="100%" stop-color="#E9E8E8"/>
            <stop offset="100%" stop-color="#D9D8D8"/>
        </linearGradient>
        <linearGradient id="prefix__l" x1="0%" x2="15.855%" y1="47.961%" y2="49.115%">
            <stop offset="0%" stop-color="#FFF"/>
            <stop offset="25.054%" stop-color="#FEFEFE"/>
            <stop offset="100%" stop-color="#E9E8E8"/>
            <stop offset="100%" stop-color="#D9D8D8"/>
        </linearGradient>
        <linearGradient id="prefix__m" x1="-1.188%" x2="18.923%" y1="45.971%" y2="49.321%">
            <stop offset="0%" stop-color="#FFF"/>
            <stop offset="25.054%" stop-color="#FEFEFE"/>
            <stop offset="100%" stop-color="#E9E8E8"/>
            <stop offset="100%" stop-color="#D9D8D8"/>
        </linearGradient>
        <linearGradient id="prefix__n" x1="-1.188%" x2="18.923%" y1="45.827%" y2="49.297%">
            <stop offset="0%" stop-color="#FFF"/>
            <stop offset="25.054%" stop-color="#FEFEFE"/>
            <stop offset="100%" stop-color="#E9E8E8"/>
            <stop offset="100%" stop-color="#D9D8D8"/>
        </linearGradient>
        <linearGradient id="prefix__o" x1="1.397%" x2="14.399%" y1="47.67%" y2="49.659%">
            <stop offset="0%" stop-color="#FFF"/>
            <stop offset="25.054%" stop-color="#FEFEFE"/>
            <stop offset="100%" stop-color="#E9E8E8"/>
            <stop offset="100%" stop-color="#D9D8D8"/>
        </linearGradient>
        <linearGradient id="prefix__p" x1="1.326%" x2="15.747%" y1="48.524%" y2="50%">
            <stop offset="0%" stop-color="#FFF"/>
            <stop offset="25.054%" stop-color="#FEFEFE"/>
            <stop offset="100%" stop-color="#E9E8E8"/>
            <stop offset="100%" stop-color="#D9D8D8"/>
        </linearGradient>
        <linearGradient id="prefix__q" x1="40.421%" x2=".582%" y1="50.416%" y2="49.076%">
            <stop offset="0%" stop-color="#D9D8D8"/>
            <stop offset="100%" stop-color="#FFF"/>
        </linearGradient>
        <linearGradient id="prefix__r" x1="40.421%" x2=".582%" y1="50.442%" y2="49.017%">
            <stop offset="0%" stop-color="#D9D8D8"/>
            <stop offset="100%" stop-color="#FFF"/>
        </linearGradient>
        <linearGradient id="prefix__s" x1="40.421%" x2=".582%" y1="50.668%" y2="48.516%">
            <stop offset="0%" stop-color="#D9D8D8"/>
            <stop offset="100%" stop-color="#FFF"/>
        </linearGradient>
        <linearGradient id="prefix__t" x1="40.421%" x2=".582%" y1="50.955%" y2="47.879%">
            <stop offset="0%" stop-color="#D9D8D8"/>
            <stop offset="100%" stop-color="#FFF"/>
        </linearGradient>
        <linearGradient id="prefix__u" x1="40.421%" x2=".582%" y1="51.092%" y2="47.572%">
            <stop offset="0%" stop-color="#D9D8D8"/>
            <stop offset="100%" stop-color="#FFF"/>
        </linearGradient>
    </defs>
    <g opacity=".703">
        <g fill="none" fill-rule="evenodd" opacity=".7">
            <path stroke="#D9D8D8" d="M169.369 422.46c6.421-.83 54.057-42.115 151.577-52.677 56.516-6.123 114.33-.048 169.292 15.82 71.849 20.744 198.145 60.693 308.726 103.638 155.331 60.622 334.537 12.886 429.457-36.064" opacity=".5" transform="rotate(15 440.247 611.733)"/>
            <path stroke="url(#prefix__a)" d="M148.447 401.265c5.704-.74 55.862-45.303 159.823-56.99 59.813-6.5 120.905-.11 178.835 17.064 75.165 22.287 209.025 65.335 325.852 111.231 164.58 64.927 354.52 10.445 454.32-44.028" opacity=".5" transform="rotate(15 440.247 611.733)"/>
            <path stroke="url(#prefix__b)" d="M126.528 379.743c4.993-.647 57.694-48.412 168.216-60.938 63.146-6.96 127.59-.176 188.531 18.2 78.55 23.684 220.09 69.559 343.272 118.117 173.973 68.82 374.764 7.947 479.585-51.722" opacity=".6" transform="rotate(15 440.247 611.733)"/>
            <path stroke="url(#prefix__c)" d="M106.603 360.163c4.282-.56 59.567-52.298 176.746-65.868 66.532-7.532 134.381-.248 198.388 19.625 82.003 25.46 231.345 74.906 360.982 126.899 183.515 73.817 395.285 5.559 505.257-60.291" opacity=".6" transform="rotate(15 440.247 611.733)"/>
            <path stroke="url(#prefix__d)" d="M85.68 338.27c3.562-.465 61.305-55.122 184.854-69.46 69.76-7.952 140.853-.317 207.77 20.652 85.258 26.72 242.038 78.726 377.824 133.096 192.611 77.31 414.815 3.057 529.706-67.654" opacity=".6" transform="rotate(15 440.247 611.733)"/>
            <path stroke="url(#prefix__e)" d="M63.762 316.713c2.853-.372 63.18-58.203 193.386-73.374 73.146-8.41 147.646-.385 217.627 21.78 88.714 28.096 253.29 82.907 395.534 139.911 202.15 81.162 435.268.61 555.377-75.29" opacity=".6" transform="rotate(15 440.247 611.733)"/>
            <path stroke="url(#prefix__f)" d="M42.84 295.507c2.139-.28 65.008-61.537 201.774-77.61 76.484-8.9 154.376-.56 227.328 22.998 92.149 29.473 264.356 87.46 412.952 147.353 211.549 85.374 455.381-1.825 580.643-83.253" opacity=".6" transform="rotate(15 440.247 611.733)"/>
            <path stroke="url(#prefix__g)" d="M21.918 273.927c1.426-.186 66.794-64.602 210.026-81.505 79.76-9.356 160.943-.602 236.866 24.116 95.458 30.888 275.24 91.632 430.081 154.144 220.793 89.218 475.15-4.233 605.502-90.849" opacity=".6" transform="rotate(15 440.247 611.733)"/>
            <path stroke="url(#prefix__h)" d="M0 253.616c.714-.094 68.667-67.94 218.555-85.74 83.152-9.846 167.732-.644 246.727 25.337 98.897 32.43 286.49 96.18 447.79 161.577 230.336 93.422 495.539-6.656 631.172-98.818" opacity=".6" transform="rotate(15 440.247 611.733)"/>
            <path stroke="url(#prefix__i)" d="M205.235 147.91c86.492-10.34 174.426-.686 256.453 26.554 102.285 33.97 297.594 100.725 465.266 169.002 239.757 97.63 515.656-9.07 656.516-106.791 140.86-97.723 192.093-194.525 192.093-194.525" opacity=".6" transform="rotate(15 440.247 611.733)"/>
            <path stroke="url(#prefix__j)" d="M207.228 136.346c148.602-19.932 250.845 16.543 321.823 42.17 94.435 34.097 273.769 97.983 429.13 155.38 219.262 81 485.84-23.555 622.64-118.524 125.693-87.253 174.782-174.214 180.183-178.72" transform="rotate(15 440.247 611.733)"/>
            <path stroke="url(#prefix__k)" d="M413.45 138.814c55.807 3.105 111.385 14.728 164.432 32.653 97.871 33.389 271.393 88.932 422.818 142.731 212.612 75.538 454.744-18.086 590.327-112.211 120.753-83.83 169.174-167.573 176.385-173.582" transform="rotate(15 440.247 611.733)"/>
            <path stroke="url(#prefix__l)" d="M353.682 134.232c55.808 3.106 132.969 17.44 186.015 35.364 97.872 33.388 249.81 86.221 401.235 140.02 212.612 75.538 454.745-18.086 590.328-112.21 120.752-83.83 108.203-76.707 115.414-82.716" transform="rotate(15 440.247 611.733)"/>
            <path stroke="url(#prefix__m)" d="M419.437 139.006c72.539-2.716 146.157 11.383 215.397 35.212 95.678 32.927 258.064 83.13 401.322 129.68 198.826 64.604 424.005-22.617 556.861-115.01C1703.644 111.95 1750.63 34.68 1761.434 25.657" transform="rotate(15 440.247 611.733)"/>
            <path stroke="url(#prefix__n)" d="M491.17 138.229c67.835 4.787 136.769 15.483 201.775 38.218 93.494 32.699 244.88 77.555 380.127 116.897 185.117 53.849 393.578-27.224 523.8-118.118 100.586-70.204 146.167-141.159 160.577-153.235" transform="rotate(15 440.247 611.733)"/>
            <path stroke="url(#prefix__o)" d="M562.902 137.51c63.004 8.385 127.375 19.482 188.153 40.946 91.309 32.244 231.646 71.46 358.931 103.245 171.342 42.793 363.152-31.63 490.744-120.349 90.542-62.952 134.72-127.07 152.734-142.11" transform="rotate(15 440.247 611.733)"/>
            <path stroke="url(#prefix__p)" d="M634.634 136.045c59.215 5.507 117.977 23.5 174.534 43.718 89.11 31.855 218.358 65.594 337.732 89.838 157.492 31.984 332.723-36.063 457.684-122.756 80.5-55.842 123.275-113.258 144.895-131.268" transform="rotate(15 440.247 611.733)"/>
            <path stroke="url(#prefix__q)" d="M706.367 135.152c54.88 8.588 108.57 27.644 160.907 46.699 86.913 31.64 205.019 60.154 316.539 76.848 143.57 21.495 302.296-40.665 424.63-125.744 70.45-48.992 111.828-99.98 137.05-121.043" opacity=".8" transform="rotate(15 440.247 611.733)"/>
            <path stroke="url(#prefix__r)" d="M778.1 133.83c50.528 11.952 99.158 31.712 147.285 49.518 84.703 31.34 191.642 54.663 295.342 63.568 129.597 11.133 271.862-45.134 391.57-128.29 60.403-41.96 100.377-86.329 129.212-110.38" opacity=".8" transform="rotate(15 440.247 611.733)"/>
            <path stroke="url(#prefix__s)" d="M982.338 185.853c82.495 31.089 178.367 47.007 274.205 50.342 115.57 4.02 241.478-49.619 358.588-130.91 50.366-34.96 88.948-72.744 121.396-99.787" opacity=".8" transform="rotate(15 440.247 611.733)"/>
            <path stroke="url(#prefix__t)" d="M1116.67 214.454c57.142 13.712 116.256 18.606 176.887 13.459 101.718-8.635 210.91-54.27 325.328-133.93 40.29-28.053 77.448-59.351 113.49-89.482" opacity=".8" transform="rotate(15 440.247 611.733)"/>
            <path stroke="url(#prefix__u)" d="M1158.681 214.915c168.212 33.04 344.741-26.282 570.872-214.915" opacity=".8" transform="rotate(15 440.247 611.733)"/>
        </g>
    </g>
</svg>
