<svg xmlns="http://www.w3.org/2000/svg" width="12" height="12" viewBox="0 0 12 12">
    <path fill="#EE9C16" fill-rule="evenodd" d="M5.85 0c3.23 0 5.85 2.62 5.85 5.85 0 3.23-2.62 5.85-5.85 5.85C2.62 11.7 0 9.08 0 5.85 0 2.62 2.62 0 5.85 0zm0 2.25c-.134 0-.244.094-.28.222l-.707 2.282H2.538c-.16 0-.288.146-.288.315 0 .103.05.196.124.25.047.033 1.878 1.43 1.878 1.43s-.703 2.253-.717 2.29c-.01.032-.017.068-.017.106 0 .169.13.305.29.305.062 0 .119-.02.167-.055L5.85 7.971l1.875 1.424c.048.035.105.055.166.055.161 0 .291-.138.291-.305 0-.038-.007-.074-.018-.107-.013-.036-.716-2.29-.716-2.29s1.83-1.396 1.877-1.429c.075-.054.125-.147.125-.252 0-.167-.125-.313-.285-.313H6.84l-.711-2.282c-.034-.128-.146-.222-.279-.222z"/>
</svg>
